<svg width="10" height="10" viewBox="0 0 10 10" fill="none" xmlns="http://www.w3.org/2000/svg">
<path d="M9.68735 1.56245H2.50008V0.624975C2.50008 0.498729 2.42383 0.384358 2.30696 0.336234C2.19009 0.288111 2.05634 0.314985 1.96634 0.403732L0.0914034 2.27867C-0.0304678 2.40054 -0.0304678 2.59866 0.0914034 2.72054L1.96634 4.59548C2.05634 4.68485 2.19009 4.71172 2.30696 4.6636C2.42383 4.61548 2.50008 4.5011 2.50008 4.37486V3.43739H9.68735C9.85985 3.43739 9.99984 3.29739 9.99984 3.1249V1.87494C9.99984 1.70182 9.85985 1.56245 9.68735 1.56245Z" fill="#47B652"/>
<path d="M9.90845 7.27907L8.0335 5.40351C7.94413 5.31413 7.80976 5.28726 7.69289 5.33601C7.57602 5.38476 7.49977 5.4985 7.49977 5.62475V6.56222H0.31249C0.139996 6.56222 0 6.70221 0 6.87471V8.12467C0 8.29716 0.139996 8.43716 0.31249 8.43716H7.49977V9.37463C7.49977 9.50087 7.57602 9.61524 7.69289 9.66337C7.80976 9.71212 7.94413 9.68524 8.0335 9.59587L9.90845 7.72093C10.0303 7.59906 10.0303 7.40094 9.90845 7.27907Z" fill="#E53C48"/>
</svg>
