<?xml version="1.0" standalone="no"?>
<!DOCTYPE svg PUBLIC "-//W3C//DTD SVG 20010904//EN"
 "http://www.w3.org/TR/2001/REC-SVG-20010904/DTD/svg10.dtd">
<svg version="1.0" xmlns="http://www.w3.org/2000/svg"
 width="1200.000000pt" height="630.000000pt" viewBox="0 0 1200.000000 630.000000"
 preserveAspectRatio="xMidYMid meet">

<g transform="translate(0.000000,630.000000) scale(0.100000,-0.100000)"
fill="#e63c47" stroke="none">
<path d="M0 3150 l0 -3150 6000 0 6000 0 0 3150 0 3150 -6000 0 -6000 0 0
-3150z m7100 885 l0 -345 -752 0 -753 0 2 -547 3 -548 400 -3 400 -2 0 330 0
330 366 0 366 0 -4 -427 c-4 -424 -5 -429 -30 -515 -59 -198 -165 -305 -363
-364 -54 -16 -120 -18 -700 -21 -694 -4 -723 -2 -856 52 -169 68 -267 211
-299 433 -8 52 -10 303 -8 787 3 651 5 715 22 775 73 259 228 376 531 399 55
5 454 9 888 10 l787 1 0 -345z"/>
</g>
</svg>
