<svg width="30" height="30" viewBox="0 0 30 30" fill="none" xmlns="http://www.w3.org/2000/svg">
<path d="M15 17.3438C15.3234 17.3438 15.5859 17.0812 15.5859 16.7578C15.5859 16.4344 15.3234 16.1719 15 16.1719C14.6766 16.1719 14.4141 16.4344 14.4141 16.7578C14.4141 17.0812 14.6766 17.3438 15 17.3438Z" fill="#101010"/>
<path d="M15 20.8594C15.3234 20.8594 15.5859 20.5968 15.5859 20.2734C15.5859 19.95 15.3234 19.6875 15 19.6875C14.6766 19.6875 14.4141 19.95 14.4141 20.2734C14.4141 20.5968 14.6766 20.8594 15 20.8594Z" fill="#101010"/>
<path d="M6.21094 12.0703C6.21094 11.7469 5.94841 11.4844 5.625 11.4844C5.30159 11.4844 5.03906 11.7469 5.03906 12.0703C5.03906 12.3937 5.30159 12.6562 5.625 12.6562C5.94841 12.6562 6.21094 12.3937 6.21094 12.0703Z" fill="#101010"/>
<path d="M1.75781 25.5469H28.2422C29.2115 25.5469 30 24.7584 30 23.7891V6.21094C30 5.24162 29.2115 4.45312 28.2422 4.45312H1.75781C0.788498 4.45312 0 5.24162 0 6.21094V23.7891C0 24.7584 0.788498 25.5469 1.75781 25.5469ZM1.75781 5.625H28.2422C28.5654 5.625 28.8281 5.88776 28.8281 6.21094V11.4844H7.96875C7.64511 11.4844 7.38281 11.7467 7.38281 12.0703C7.38281 12.394 7.64511 12.6562 7.96875 12.6562H28.8281V23.7891C28.8281 24.1122 28.5654 24.375 28.2422 24.375H1.75781C1.43463 24.375 1.17188 24.1122 1.17188 23.7891V12.6562H3.28125C3.60489 12.6562 3.86719 12.394 3.86719 12.0703C3.86719 11.7467 3.60489 11.4844 3.28125 11.4844H1.17188V6.21094C1.17188 5.88776 1.43463 5.625 1.75781 5.625Z" fill="#101010"/>
<path d="M5.625 10.3125H10.3125C11.2839 10.3125 12.0703 9.52583 12.0703 8.55469C12.0703 7.58537 11.2818 6.79688 10.3125 6.79688H5.625C4.65363 6.79688 3.86719 7.58354 3.86719 8.55469C3.86719 9.524 4.65569 10.3125 5.625 10.3125ZM10.8984 8.55469C10.8984 8.8781 10.6361 9.14062 10.3125 9.14062H8.55469V7.96875H10.3125C10.6357 7.96875 10.8984 8.23151 10.8984 8.55469ZM5.625 7.96875H7.38281V9.14062H5.625C5.30182 9.14062 5.03906 8.87787 5.03906 8.55469C5.03906 8.23128 5.30136 7.96875 5.625 7.96875Z" fill="#101010"/>
<path d="M19.6875 10.3125H24.375C25.3461 10.3125 26.1328 9.52583 26.1328 8.55469C26.1328 7.58537 25.3443 6.79688 24.375 6.79688H19.6875C18.7164 6.79688 17.9297 7.58354 17.9297 8.55469C17.9297 9.524 18.7182 10.3125 19.6875 10.3125ZM24.9609 8.55469C24.9609 8.87833 24.6984 9.14062 24.375 9.14062H22.6172V7.96875H24.375C24.6982 7.96875 24.9609 8.23151 24.9609 8.55469ZM19.6875 7.96875H21.4453V9.14062H19.6875C19.3643 9.14062 19.1016 8.87787 19.1016 8.55469C19.1016 8.23105 19.3641 7.96875 19.6875 7.96875Z" fill="#101010"/>
<path d="M8.55469 16.1719C8.23105 16.1719 7.96875 16.4342 7.96875 16.7578H7.38281C7.05917 16.7578 6.79688 17.0201 6.79688 17.3438C6.79688 17.6674 7.05917 17.9297 7.38281 17.9297H7.96875V20.2734C7.96875 20.5971 8.23105 20.8594 8.55469 20.8594C8.87833 20.8594 9.14062 20.5971 9.14062 20.2734V16.7578C9.14062 16.4342 8.87833 16.1719 8.55469 16.1719Z" fill="#101010"/>
<path d="M3.86719 14.4141V22.6172C3.86719 22.9408 4.12949 23.2031 4.45312 23.2031H12.6562C12.9799 23.2031 13.2422 22.9408 13.2422 22.6172V14.4141C13.2422 14.0904 12.9799 13.8281 12.6562 13.8281H4.45312C4.12949 13.8281 3.86719 14.0904 3.86719 14.4141ZM5.03906 15H12.0703V22.0312H5.03906V15Z" fill="#101010"/>
<path d="M17.3438 23.2031H25.5469C25.8705 23.2031 26.1328 22.9408 26.1328 22.6172V14.4141C26.1328 14.0904 25.8705 13.8281 25.5469 13.8281H17.3438C17.0201 13.8281 16.7578 14.0904 16.7578 14.4141V22.6172C16.7578 22.9408 17.0201 23.2031 17.3438 23.2031ZM17.9297 15H24.9609V22.0312H17.9297V15Z" fill="#101010"/>
<path d="M21.4453 16.1719C20.476 16.1719 19.6875 16.9604 19.6875 17.9297V19.1016C19.6875 20.0709 20.476 20.8594 21.4453 20.8594C22.4146 20.8594 23.2031 20.0709 23.2031 19.1016V17.9297C23.2031 16.9585 22.4165 16.1719 21.4453 16.1719ZM22.0312 19.1016C22.0312 19.4247 21.7685 19.6875 21.4453 19.6875C21.1221 19.6875 20.8594 19.4247 20.8594 19.1016V17.9297C20.8594 17.6065 21.1221 17.3438 21.4453 17.3438C21.7687 17.3438 22.0312 17.6063 22.0312 17.9297V19.1016Z" fill="#101010"/>
</svg>
