<svg width="1072" height="518" viewBox="0 0 1072 518" fill="none" xmlns="http://www.w3.org/2000/svg">
<path d="M12.1136 286.178L0.609365 286.178L0.609362 230.958L12.1136 230.958M12.1136 286.178L12.1136 230.958M12.1136 286.178L12.1136 326.826M12.1136 230.958L12.1136 190.309M12.1136 105.178L12.1136 0.872863L201.55 0.872855L536.868 0.87284M12.1136 105.178L142.495 105.178L142.495 411.958L12.1136 411.958M12.1136 105.178L12.1136 190.309M12.1136 411.958L12.1136 517.03L538.402 517.03M12.1136 411.958L12.1136 326.826M12.1136 326.826L52.7619 326.826L52.7619 190.309L12.1136 190.309M536.868 0.87284L1062.69 0.872817L1062.69 105.945M536.868 0.87284L538.402 517.03M538.402 517.03L1062.69 517.03L1062.69 411.191M1062.69 411.191L931.542 411.191L931.542 105.945L1062.69 105.945M1062.69 411.191L1062.69 327.593M1062.69 105.945L1062.69 190.309M1062.69 190.309L1018.21 190.309L1018.21 327.593L1062.69 327.593M1062.69 190.309L1062.69 230.958M1062.69 327.593L1062.69 286.178M1062.69 286.178L1071.13 286.178L1071.13 230.958L1062.69 230.958M1062.69 286.178L1062.69 230.958" stroke="#73CD7C"/>
<path d="M931.808 319.504C913.319 305.601 901.363 283.481 901.363 258.568C901.363 233.655 913.319 211.534 931.808 197.631L931.808 319.504Z" stroke="#73CD7C"/>
<path d="M142.228 197.631C160.717 211.535 172.673 233.655 172.673 258.568C172.673 283.481 160.717 305.601 142.228 319.505L142.228 197.631Z" stroke="#73CD7C"/>
<circle cx="535.695" cy="258.568" r="76.1949" transform="rotate(-90 535.695 258.568)" stroke="#73CD7C"/>
<circle cx="537.229" cy="258.568" r="4.6017" transform="rotate(-90 537.229 258.568)" fill="#73CD7C"/>
</svg>
