<svg width="16" height="16" viewBox="0 0 16 16" fill="none" xmlns="http://www.w3.org/2000/svg">
<g clip-path="url(#clip0)">
<path d="M14.4108 1.90259L8.1349 0.0197813C8.04703 -0.00659375 7.95337 -0.00659375 7.86546 0.0197813L1.5894 1.90259C1.39115 1.96206 1.25537 2.14456 1.25537 2.35156V9.25519C1.25537 10.1531 1.6189 11.0723 2.33581 11.9872C2.88334 12.686 3.64087 13.3876 4.58728 14.0727C6.17718 15.2236 7.74278 15.9296 7.80865 15.9591C7.86956 15.9863 7.93487 16 8.00018 16C8.0655 16 8.13081 15.9864 8.19172 15.9591C8.25756 15.9296 9.82312 15.2236 11.413 14.0727C12.3594 13.3876 13.1169 12.686 13.6645 11.9872C14.3814 11.0723 14.7449 10.1532 14.7449 9.25519V2.35156C14.7449 2.14456 14.6092 1.96206 14.4108 1.90259Z" fill="black"/>
</g>
<defs>
<clipPath id="clip0">
<rect width="16" height="16" fill="white"/>
</clipPath>
</defs>
</svg>
