<svg width="30" height="30" viewBox="0 0 30 30" fill="none" xmlns="http://www.w3.org/2000/svg">
<g clip-path="url(#clip0)">
<path d="M19.6174 13.6518L12.9897 10.0254C12.6086 9.81691 12.1582 9.8247 11.7847 10.046C11.4109 10.2676 11.188 10.659 11.188 11.0934V18.2839C11.188 18.7163 11.4095 19.107 11.7808 19.3288C11.9747 19.4446 12.1896 19.5027 12.4049 19.5027C12.6022 19.5027 12.8 19.454 12.982 19.356L19.6099 15.7921C20.0033 15.5804 20.2489 15.1714 20.2507 14.7244C20.2523 14.2774 20.0097 13.8665 19.6174 13.6518ZM12.946 17.3794V12.0053L17.8995 14.7157L12.946 17.3794Z" fill="black"/>
<path d="M29.7792 8.99574L29.7779 8.98201C29.7525 8.74054 29.4995 6.59271 28.4554 5.50026C27.2485 4.21532 25.8803 4.05922 25.2222 3.98438C25.1677 3.9782 25.1179 3.97247 25.0732 3.96652L25.0208 3.96103C21.0548 3.67264 15.0652 3.63327 15.0052 3.63304L14.9999 3.63281L14.9947 3.63304C14.9347 3.63327 8.94512 3.67264 4.94337 3.96103L4.8905 3.96652C4.84793 3.97224 4.80101 3.97751 4.74997 3.98346C4.09949 4.05853 2.74588 4.21486 1.53556 5.54626C0.541075 6.62704 0.2536 8.72887 0.224074 8.96507L0.220641 8.99574C0.211715 9.09622 0 11.4883 0 13.8897V16.1346C0 18.536 0.211715 20.928 0.220641 21.0287L0.222243 21.0439C0.247649 21.2814 0.500334 23.3899 1.53968 24.4828C2.67447 25.7247 4.10933 25.8891 4.88111 25.9774C5.00311 25.9914 5.10816 26.0033 5.1798 26.0159L5.24916 26.0255C7.53911 26.2434 14.7189 26.3507 15.0233 26.3551L15.0324 26.3553L15.0416 26.3551C15.1016 26.3548 21.0909 26.3155 25.057 26.0271L25.1094 26.0216C25.1595 26.0149 25.2158 26.009 25.2776 26.0026C25.9244 25.9339 27.2707 25.7913 28.4643 24.478C29.4588 23.397 29.7465 21.2952 29.7758 21.0592L29.7792 21.0285C29.7882 20.9278 30.0001 18.536 30.0001 16.1346V13.8897C29.9999 11.4883 29.7882 9.09645 29.7792 8.99574ZM28.2418 16.1346C28.2418 18.3572 28.0478 20.6463 28.0294 20.8564C27.9548 21.4352 27.6516 22.765 27.167 23.2917C26.42 24.1136 25.6525 24.1951 25.0922 24.2544C25.0245 24.2615 24.9618 24.2683 24.905 24.2754C21.0689 24.5528 15.3055 24.5954 15.04 24.597C14.7422 24.5927 7.66751 24.4844 5.44737 24.2782C5.33361 24.2596 5.2107 24.2455 5.08116 24.2308C4.42404 24.1555 3.52454 24.0525 2.83286 23.2917L2.81661 23.2743C2.34054 22.7783 2.04597 21.5348 1.97112 20.8633C1.95716 20.7044 1.75803 18.3884 1.75803 16.1346V13.8897C1.75803 11.6695 1.95167 9.38301 1.97044 9.16855C2.05947 8.48671 2.36846 7.23747 2.83286 6.73256C3.60281 5.8857 4.41466 5.79185 4.95161 5.72983C5.00288 5.72388 5.05072 5.71838 5.09489 5.71266C8.98678 5.43388 14.7917 5.39246 14.9999 5.39085C15.2082 5.39223 21.011 5.43388 24.8684 5.71266C24.9158 5.71861 24.9675 5.72456 25.0231 5.73097C25.5754 5.79391 26.4101 5.88913 27.1762 6.70624L27.1833 6.71379C27.6593 7.20978 27.9539 8.47504 28.0288 9.16008C28.042 9.31 28.2418 11.6311 28.2418 13.8897V16.1346Z" fill="black"/>
</g>
<defs>
<clipPath id="clip0">
<rect width="30" height="30" fill="white"/>
</clipPath>
</defs>
</svg>
