<svg width="16" height="16" viewBox="0 0 16 16" fill="none" xmlns="http://www.w3.org/2000/svg">
<path d="M6.41694 3.97827H6.29751C6.66028 3.55622 6.88133 3.00932 6.88133 2.41055C6.88133 1.08121 5.7997 0 4.47095 0C3.14178 0 2.0608 1.08121 2.0608 2.41055C2.0608 3.00932 2.28171 3.55622 2.64472 3.97827H2.52502C1.85407 3.97827 1.30859 4.52456 1.30859 5.1953V9.19365C1.30859 9.86446 1.85427 10.4103 2.52502 10.4103H2.57227V14.783C2.57227 15.4772 2.93702 16 3.42148 16H5.52051C6.00507 16 6.37085 15.4772 6.37085 14.783V10.41H6.41739C7.08803 10.41 7.63408 9.86408 7.63408 9.19344V5.19527C7.63374 4.52435 7.08779 3.97827 6.41694 3.97827Z" fill="#47B652"/>
<path d="M13.4744 3.97827H13.3546C13.7177 3.55622 13.9385 3.00932 13.9385 2.41055C13.9385 1.08121 12.8575 0 11.5281 0C10.1995 0 9.11781 1.08121 9.11781 2.41055C9.11781 3.00932 9.33902 3.55622 9.70173 3.97827H9.58263C8.91158 3.97827 8.36621 4.52456 8.36621 5.1953V9.19365C8.36621 9.86446 8.91199 10.4103 9.58263 10.4103H9.62917V14.783C9.62917 15.4772 9.99451 16 10.4788 16H12.5778C13.0625 16 13.4279 15.4772 13.4279 14.783V10.41H13.4746C14.145 10.41 14.691 9.86408 14.691 9.19344V5.19527C14.6908 4.52435 14.145 3.97827 13.4744 3.97827Z" fill="#E53C48"/>
</svg>
