<svg width="15" height="15" viewBox="0 0 15 15" fill="none" xmlns="http://www.w3.org/2000/svg">
<path d="M3.53485 15.0286C3.32245 15.0286 3.11165 14.9693 2.9266 14.8526C2.60639 14.6504 2.40795 14.3037 2.39582 13.9251L2.35886 12.7124C0.838165 11.3489 0 9.43439 0 7.32204C0 5.30594 0.77282 3.45188 2.17587 2.10136C3.56426 0.765152 5.45506 0.0292969 7.5 0.0292969C9.54494 0.0292969 11.4357 0.765152 12.8241 2.10136C14.2272 3.45188 15 5.30594 15 7.32204C15 9.33804 14.2272 11.1921 12.8241 12.5426C11.4357 13.8788 9.54494 14.6148 7.5 14.6148C6.76277 14.6148 6.04134 14.5195 5.35561 14.3316L3.99433 14.9321C3.84682 14.9968 3.69049 15.0286 3.53485 15.0286ZM7.5 1.20117C3.89236 1.20117 1.17188 3.83251 1.17188 7.32204C1.17188 9.09943 1.87374 10.7062 3.14816 11.8462C3.38322 12.058 3.51814 12.3447 3.52947 12.6551L3.52959 12.6588L3.56575 13.8404L4.89292 13.2548C5.13187 13.1496 5.40138 13.1293 5.65235 13.1978C6.24218 13.3605 6.86325 13.4428 7.5 13.4428C11.1076 13.4428 13.8281 10.8115 13.8281 7.32204C13.8281 3.83251 11.1076 1.20117 7.5 1.20117ZM3.8126 9.71569L6.00243 8.02734C6.1504 7.91634 6.3541 7.91485 6.50345 8.02597L8.12382 9.28551C8.6095 9.64794 9.30462 9.52011 9.62837 9.00913L11.6651 5.77938C11.8618 5.47108 11.4795 5.1226 11.1877 5.34336L8.99895 7.00195C8.85098 7.11308 8.64727 7.11445 8.49792 7.00333L6.87756 5.7732C6.39187 5.41077 5.69675 5.53848 5.373 6.04946L3.33527 9.27956C3.13854 9.58786 3.52089 9.93645 3.8126 9.71569Z" fill="#368AED"/>
</svg>
