<?xml version="1.0" encoding="utf-8"?>
<!-- Generator: Adobe Illustrator 21.1.0, SVG Export Plug-In . SVG Version: 6.00 Build 0)  -->
<svg version="1.1" id="Layer_1" xmlns="http://www.w3.org/2000/svg" xmlns:xlink="http://www.w3.org/1999/xlink" x="0px" y="0px"
	 viewBox="0 0 1700.8 934.4" style="enable-background:new 0 0 1700.8 934.4;" xml:space="preserve">
<style type="text/css">
	.st0{fill:#FFFFFF;}
</style>
<g>
	<path class="st0" d="M1387.9,296.9c-17.5-38.5-64.1-55.1-104.3-36.9c-40.1,18.2-58.4,64.1-41,102.7c17.5,38.6,64.1,55.1,104.3,37
		C1387,381.4,1405.4,335.4,1387.9,296.9z M1302.8,370.4c-14.8,6.7-32.5,2.7-40-13.9c-7-15.6-0.3-32,16.2-39.4
		c8.5-3.9,16.8-4.1,23.9-1.3l-4.4,10.7c-4.6-2-9.9-2.1-15.4,0.4c-9.8,4.4-13.7,14.5-9.2,24.6c4.8,10.5,15.2,13.7,24.4,9.5
		c8.7-4,12-10.3,10.1-18.3l-13.6,6.2l-3.9-8.6l24.6-11.1c0.6,0.9,1,1.9,1.5,2.8C1323.9,347.6,1317.9,363.5,1302.8,370.4z
		 M1338.1,353.3l-23.3-51.4l39.7-18l4.3,9.4l-29,13.1l5.2,11.4l27.6-12.5l4.3,9.4l-27.6,12.5l5.4,11.8l29.3-13.3l4.3,9.4
		L1338.1,353.3z"/>
	<path class="st0" d="M928.8,560.2L928.8,560.2c-27.8,15.3-63,5.5-78.6-21.9c-15.6-27.5-5.6-62.2,22.2-77.5s63-5.5,78.6,21.9
		C966.6,510.1,956.7,544.9,928.8,560.2L928.8,560.2z"/>
	<path class="st0" d="M550.9,436.7v65.4c0,48-19.2,67.2-67.2,67.2h-91.1c-47.9,0-67.2-19.1-67.2-67.2V391.3
		c0-47.3,18.6-66.6,64.9-67.1h158v67.2H397.6v110.7h81.1v-65.4L550.9,436.7L550.9,436.7z"/>
	<path class="st0" d="M746.6,323.6h-91.2c-47.9,0-67.2,19.1-67.2,67.1v110.8c0,48.1,19.3,67.2,67.2,67.2h91.2
		c47.9,0,67.1-19.1,67.1-67.2V390.7C813.7,342.7,794.4,323.6,746.6,323.6z M741.5,501.5h-81.1V390.7h81.1V501.5z"/>
	<path class="st0" d="M1285,502.1v67.2h-123.2c-47.9,0-67.2-19.1-67.2-67.2V324.2h72.2v177.9H1285z"/>
	<path class="st0" d="M1082.8,568.5l-78.1,0.6l-53.8-178.4l-102.4,0.1v-66.6h120.1c27.2,1.5,42.2,16,50.1,36.1l4.4,14.2
		L1082.8,568.5z"/>
</g>
</svg>
