<svg width="30" height="24" viewBox="0 0 30 24" fill="none" xmlns="http://www.w3.org/2000/svg">
<path d="M29.4167 14.6447C29.046 14.4401 28.5756 14.4851 28.1261 14.7681L19.822 19.9972C19.5909 20.1427 19.5215 20.448 19.6671 20.6791C19.8126 20.9102 20.1179 20.9796 20.349 20.8341L28.6531 15.6049C28.8285 15.4945 28.9245 15.5026 28.9387 15.5105C28.953 15.5184 29.0109 15.5953 29.0109 15.8025C29.0109 16.3596 28.5975 17.1086 28.1261 17.4054L20.0757 22.4747C19.6477 22.7442 19.2564 22.8183 19.0021 22.678C18.7478 22.5376 18.602 22.167 18.602 21.6611C18.602 20.3795 19.5182 18.7198 20.6028 18.037L29.769 12.265C29.9128 12.1745 30 12.0165 30 11.8466C30 11.6766 29.9128 11.5186 29.769 11.4281L12.156 0.337163C11.995 0.235757 11.79 0.235757 11.629 0.337163L2.35118 6.17938C1.03278 7.00962 0 8.88034 0 10.4383V10.7021C0 12.2601 1.03278 14.1309 2.35118 14.961L16.1505 23.6505C16.3816 23.796 16.6869 23.7266 16.8325 23.4955C16.978 23.2644 16.9086 22.9591 16.6775 22.8136L2.87819 14.1242C1.85411 13.4794 0.989 11.9122 0.989 10.7021V10.4383C0.989 9.22821 1.85411 7.6611 2.87819 7.01628L11.8925 1.34001L28.5775 11.8465L20.0758 17.2C18.6948 18.0696 17.613 20.0291 17.613 21.6611C17.613 22.5509 17.9366 23.2195 18.5241 23.5439C18.7601 23.6741 19.0203 23.7388 19.2961 23.7388C19.7069 23.7388 20.1523 23.5953 20.6027 23.3116L28.6531 18.2423C29.4084 17.7667 29.9999 16.695 29.9999 15.8025C29.9999 15.2713 29.7874 14.8494 29.4167 14.6447Z" fill="black"/>
<path d="M23.3183 12.341C23.4826 12.341 23.6432 12.2592 23.7372 12.11C23.8827 11.8789 23.8134 11.5736 23.5823 11.4281L12.156 4.23302C11.9248 4.0875 11.6196 4.15693 11.4741 4.38796C11.3285 4.61906 11.3979 4.92439 11.629 5.06991L23.0553 12.2649C23.1371 12.3164 23.2282 12.341 23.3183 12.341Z" fill="black"/>
<path d="M21.3412 13.6534C21.5058 13.6534 21.6668 13.5713 21.7606 13.4215C21.9057 13.1902 21.8357 12.885 21.6043 12.7399L16.7773 9.71326C16.5458 9.56807 16.2406 9.63816 16.0957 9.86952C15.9505 10.1009 16.0205 10.4061 16.2519 10.5511L21.079 13.5778C21.1606 13.629 21.2514 13.6534 21.3412 13.6534Z" fill="black"/>
<path d="M14.7626 11.0147C14.531 10.87 14.2259 10.9406 14.0812 11.1722C13.9366 11.4039 14.0071 11.7089 14.2388 11.8536L19.1029 14.8906C19.1844 14.9415 19.2749 14.9657 19.3643 14.9657C19.5292 14.9657 19.6905 14.8832 19.7843 14.733C19.9289 14.5014 19.8584 14.1963 19.6267 14.0517L14.7626 11.0147Z" fill="black"/>
<path d="M9.57424 5.52712L5.46461 8.11527C5.32041 8.20606 5.23312 8.36469 5.23364 8.53513C5.23417 8.70557 5.32233 8.86368 5.46705 8.95368L10.3682 12.0011C10.4482 12.0508 10.5387 12.0756 10.6293 12.0756C10.7227 12.0756 10.8161 12.0492 10.8977 11.9964L11.9893 11.2909C12.2187 11.1427 12.2844 10.8366 12.1362 10.6072C11.988 10.3778 11.6819 10.3122 11.4525 10.4603L10.6242 10.9956L6.66038 8.53104L9.83837 6.52964L13.7445 8.97886L13.2891 9.27319C13.0597 9.42147 12.994 9.72754 13.1422 9.95692C13.2905 10.1863 13.5968 10.252 13.826 10.1038L14.9336 9.38785C15.0756 9.29607 15.1608 9.13816 15.1597 8.96911C15.1585 8.80012 15.0711 8.64339 14.9279 8.55359L10.1004 5.52666C9.93951 5.42571 9.73499 5.42591 9.57424 5.52712Z" fill="black"/>
<path d="M17.808 16.0445C17.9522 15.8125 17.8811 15.5077 17.6491 15.3635L12.7478 12.316C12.5159 12.1717 12.2109 12.2428 12.0668 12.4748C11.9226 12.7067 11.9937 13.0116 12.2256 13.1558L17.1269 16.2033C17.2082 16.2539 17.2984 16.278 17.3876 16.278C17.5528 16.278 17.7143 16.1952 17.808 16.0445Z" fill="black"/>
<path d="M3.52922 9.71615C3.38502 9.94811 3.4561 10.253 3.68805 10.3972L15.7854 17.9189C15.8666 17.9695 15.9569 17.9935 16.046 17.9935C16.2112 17.9935 16.3728 17.9107 16.4664 17.7601C16.6106 17.5281 16.5395 17.2232 16.3076 17.0791L4.21024 9.55732C3.97829 9.41299 3.67341 9.4842 3.52922 9.71615Z" fill="black"/>
</svg>
