<svg width="16" height="16" viewBox="0 0 16 16" fill="none" xmlns="http://www.w3.org/2000/svg">
<g clip-path="url(#clip0)">
<path d="M4 6.28455H0.572385C0.257741 6.28455 0.00334728 6.53894 0 6.85693V15.426C0 15.744 0.257741 15.9984 0.572385 15.9984H4C4.31799 15.9984 4.57239 15.7406 4.57239 15.426V6.85693C4.57239 6.53894 4.31464 6.28455 4 6.28455Z" fill="black"/>
<path d="M9.71388 0.00164795H6.28625C5.97161 0.00164795 5.71387 0.256041 5.71387 0.570686V15.4259C5.71387 15.7439 5.97161 15.9983 6.28625 15.9983H9.71388C10.0319 15.9983 10.2863 15.7406 10.2863 15.4259V0.574033C10.2863 0.256041 10.0285 0.00164795 9.71388 0.00164795Z" fill="black"/>
<path d="M15.4277 4.57074H12.0001C11.6821 4.57074 11.4277 4.82513 11.4277 5.14312V15.426C11.4277 15.744 11.6855 15.9984 12.0001 15.9984H15.4277C15.7457 15.9984 16.0001 15.7406 16.0001 15.426V5.14312C16.0001 4.82513 15.7424 4.57074 15.4277 4.57074Z" fill="black"/>
</g>
<defs>
<clipPath id="clip0">
<rect width="16" height="16" fill="white"/>
</clipPath>
</defs>
</svg>
