<svg width="16" height="16" viewBox="0 0 16 16" fill="none" xmlns="http://www.w3.org/2000/svg">
<g clip-path="url(#clip0)">
<path d="M1.07275 12.9363L2.06697 11.9421L4.05542 13.9305L3.0612 14.9247L1.07275 12.9363Z" fill="black"/>
<path d="M0.411258 15.5888C0.959602 16.1371 1.85166 16.1371 2.40001 15.5888L0.411258 13.6001C-0.137086 14.1484 -0.137086 15.0405 0.411258 15.5888Z" fill="black"/>
<path d="M11.9404 13.9315L13.9289 11.9431L14.9231 12.9373L12.9346 14.9257L11.9404 13.9315Z" fill="black"/>
<path d="M13.6001 15.5888C14.1484 16.1371 15.0405 16.1371 15.5888 15.5888C16.1372 15.0405 16.1372 14.1484 15.5888 13.6001L13.6001 15.5888Z" fill="black"/>
<path d="M13.2686 11.2798L12.6057 10.6169L13.6 9.62254C13.7832 9.43932 13.7832 9.14279 13.6 8.95957C13.4168 8.77642 13.1203 8.77642 12.9371 8.95957L8.95968 12.9371C8.77646 13.1203 8.77646 13.4168 8.95968 13.6C9.14284 13.7832 9.43937 13.7832 9.62259 13.6L10.617 12.6056L11.2799 13.2685L13.2686 11.2798Z" fill="black"/>
<path d="M4.02316 8.66296L3.42622 9.2599L3.09475 8.92843C2.91154 8.74528 2.61507 8.74528 2.43185 8.92843C2.24863 9.11165 2.24863 9.40818 2.43185 9.5914L3.42622 10.5857L2.732 11.2799L4.72075 13.2686L5.41491 12.5745L6.40929 13.5688C6.5925 13.7521 6.88904 13.7521 7.07219 13.5688C7.25541 13.3856 7.25541 13.0892 7.07219 12.9059L6.74079 12.5745L7.33772 11.9775L4.02316 8.66296Z" fill="black"/>
<path d="M15.5315 6.10352e-05H12.8798C12.7556 6.10352e-05 12.6364 0.0492798 12.5484 0.13728L8.66309 4.02259L11.9776 7.33715L15.8629 3.45181C15.951 3.36381 16.0002 3.24469 16.0002 3.1204V0.468749C16.0002 0.20978 15.7904 6.10352e-05 15.5315 6.10352e-05Z" fill="black"/>
<path d="M3.45184 0.138195C3.36378 0.0501953 3.24466 0.000976562 3.12037 0.000976562H0.468719C0.209781 0.000976562 0 0.210695 0 0.469664V3.12132C0 3.2456 0.0492188 3.36473 0.137281 3.45273L8.62825 11.9438L11.9428 8.6292L3.45184 0.138195Z" fill="black"/>
</g>
<defs>
<clipPath id="clip0">
<rect width="16" height="16" fill="white"/>
</clipPath>
</defs>
</svg>
