<svg width="25" height="25" viewBox="0 0 25 25" fill="none" xmlns="http://www.w3.org/2000/svg">
<path d="M24.2676 1.80435H21.0594C21.0711 1.44901 21.0775 1.09158 21.0775 0.732422C21.0775 0.327873 20.7495 0 20.3451 0H4.65488C4.25053 0 3.92246 0.327873 3.92246 0.732422C3.92246 1.09158 3.92895 1.44901 3.94058 1.80435H0.732422C0.327873 1.80435 0 2.13223 0 2.53677C0 5.81856 0.857735 8.91476 2.41508 11.2553C3.95451 13.5691 6.0051 14.8962 8.22029 15.0253C8.7225 15.5718 9.25331 16.0173 9.80625 16.3572V19.6125H8.57754C7.09209 19.6125 5.88379 20.821 5.88379 22.3063V23.535H5.83172C5.42717 23.535 5.0993 23.863 5.0993 24.2674C5.0993 24.6719 5.42717 24.9998 5.83172 24.9998H19.1683C19.5728 24.9998 19.9007 24.6719 19.9007 24.2674C19.9007 23.863 19.5728 23.535 19.1683 23.535H19.1162V22.3063C19.1162 20.821 17.9079 19.6125 16.4225 19.6125H15.1937V16.3572C15.7467 16.0175 16.2777 15.5718 16.7799 15.0253C18.9949 14.8962 21.0455 13.5691 22.5851 11.2553C24.1425 8.91476 25 5.81856 25 2.53677C25 2.13223 24.6721 1.80435 24.2676 1.80435ZM3.63464 10.4439C2.35004 8.51345 1.59531 5.9885 1.48029 3.2692H4.02241C4.28658 6.61201 5.07126 9.70192 6.29768 12.1546C6.493 12.5452 6.69727 12.9143 6.90918 13.2618C5.69096 12.8017 4.56352 11.8401 3.63464 10.4439ZM17.6514 22.3063V23.5352H7.34863V22.3063C7.34863 21.6288 7.89986 21.0773 8.57754 21.0773H16.4225C17.1001 21.0773 17.6514 21.6288 17.6514 22.3063ZM13.7289 19.6125H11.2711V16.9937C11.6737 17.0998 12.084 17.1549 12.5 17.1549C12.916 17.1549 13.3263 17.0998 13.7289 16.9937V19.6125ZM14.1825 15.2512C14.1495 15.2647 14.1178 15.2811 14.0875 15.2992C13.5698 15.5567 13.0379 15.69 12.5 15.69C11.9623 15.69 11.4305 15.5567 10.9131 15.2996C10.8824 15.2811 10.8505 15.2647 10.8171 15.2508C10.2428 14.9471 9.68723 14.4886 9.16176 13.8861C9.1341 13.8466 9.10301 13.8102 9.06849 13.777C8.54683 13.1577 8.05607 12.3959 7.60784 11.4994C6.26183 8.80756 5.48439 5.2681 5.39589 1.46484H19.6041C19.5154 5.2681 18.738 8.80775 17.3922 11.4994C16.9439 12.3959 16.4532 13.1577 15.9317 13.777C15.897 13.8102 15.8655 13.8468 15.8381 13.8863C15.3126 14.489 14.7568 14.9473 14.1825 15.2512ZM21.3654 10.4439C20.4365 11.8401 19.309 12.8017 18.0908 13.2618C18.3027 12.9143 18.507 12.5452 18.7023 12.1546C19.9287 9.70192 20.7132 6.61201 20.9776 3.2692H23.5197C23.4047 5.9885 22.65 8.51345 21.3654 10.4439Z" fill="black"/>
</svg>
